<mxfile host="app.diagrams.net" modified="2024-01-10T16:09:40.144Z" agent="Mozilla/5.0 (X11; Ubuntu; Linux x86_64; rv:121.0) Gecko/20100101 Firefox/121.0" etag="F-QFQtjsZiYENBgA2SDW" version="22.1.18" type="device">
  <diagram name="Page-1" id="xmfZR-6xMknwbEORXX9I">
    <mxGraphModel dx="1900" dy="522" grid="1" gridSize="10" guides="1" tooltips="1" connect="1" arrows="1" fold="1" page="1" pageScale="1" pageWidth="850" pageHeight="1100" math="0" shadow="0">
      <root>
        <mxCell id="0" />
        <mxCell id="1" parent="0" />
        <mxCell id="r_CtDc-ecSbwkcaLi53V-7" style="edgeStyle=orthogonalEdgeStyle;rounded=0;orthogonalLoop=1;jettySize=auto;html=1;endArrow=block;endFill=0;" parent="1" source="r_CtDc-ecSbwkcaLi53V-1" target="r_CtDc-ecSbwkcaLi53V-6" edge="1">
          <mxGeometry relative="1" as="geometry" />
        </mxCell>
        <mxCell id="r_CtDc-ecSbwkcaLi53V-11" style="edgeStyle=orthogonalEdgeStyle;rounded=0;orthogonalLoop=1;jettySize=auto;html=1;entryX=0.5;entryY=1;entryDx=0;entryDy=0;endArrow=block;endFill=0;" parent="1" source="r_CtDc-ecSbwkcaLi53V-2" target="r_CtDc-ecSbwkcaLi53V-5" edge="1">
          <mxGeometry relative="1" as="geometry" />
        </mxCell>
        <mxCell id="r_CtDc-ecSbwkcaLi53V-2" value="&lt;div&gt;FeedRepository&lt;/div&gt;&lt;div&gt;Impl&lt;/div&gt;" style="rounded=0;whiteSpace=wrap;html=1;" parent="1" vertex="1">
          <mxGeometry x="40" y="720" width="120" height="60" as="geometry" />
        </mxCell>
        <mxCell id="r_CtDc-ecSbwkcaLi53V-10" style="edgeStyle=orthogonalEdgeStyle;rounded=0;orthogonalLoop=1;jettySize=auto;html=1;entryX=0.5;entryY=1;entryDx=0;entryDy=0;endArrow=block;endFill=0;" parent="1" source="r_CtDc-ecSbwkcaLi53V-3" target="r_CtDc-ecSbwkcaLi53V-4" edge="1">
          <mxGeometry relative="1" as="geometry" />
        </mxCell>
        <mxCell id="r_CtDc-ecSbwkcaLi53V-13" style="edgeStyle=orthogonalEdgeStyle;rounded=0;orthogonalLoop=1;jettySize=auto;html=1;entryX=0.5;entryY=0;entryDx=0;entryDy=0;" parent="1" source="r_CtDc-ecSbwkcaLi53V-3" target="hzfJFQm4GblcsouTqsyo-2" edge="1">
          <mxGeometry relative="1" as="geometry">
            <mxPoint x="600" y="780" as="targetPoint" />
          </mxGeometry>
        </mxCell>
        <mxCell id="r_CtDc-ecSbwkcaLi53V-3" value="&lt;div&gt;FeedPresenterImpl&lt;/div&gt;" style="rounded=0;whiteSpace=wrap;html=1;" parent="1" vertex="1">
          <mxGeometry x="540" y="660" width="120" height="60" as="geometry" />
        </mxCell>
        <mxCell id="r_CtDc-ecSbwkcaLi53V-4" value="&lt;div&gt;«interface»&lt;/div&gt;&lt;div&gt;&lt;b&gt;FeedPresenter&lt;/b&gt;&lt;br&gt;&lt;/div&gt;" style="html=1;whiteSpace=wrap;" parent="1" vertex="1">
          <mxGeometry x="530" y="390" width="140" height="70" as="geometry" />
        </mxCell>
        <mxCell id="r_CtDc-ecSbwkcaLi53V-5" value="&lt;div&gt;«interface»&lt;/div&gt;&lt;div&gt;&lt;b&gt;FeedRepository&lt;/b&gt;&lt;br&gt;&lt;/div&gt;" style="html=1;whiteSpace=wrap;" parent="1" vertex="1">
          <mxGeometry x="30" y="390" width="140" height="70" as="geometry" />
        </mxCell>
        <mxCell id="r_CtDc-ecSbwkcaLi53V-8" style="edgeStyle=orthogonalEdgeStyle;rounded=0;orthogonalLoop=1;jettySize=auto;html=1;" parent="1" source="r_CtDc-ecSbwkcaLi53V-6" target="r_CtDc-ecSbwkcaLi53V-5" edge="1">
          <mxGeometry relative="1" as="geometry" />
        </mxCell>
        <mxCell id="r_CtDc-ecSbwkcaLi53V-9" style="edgeStyle=orthogonalEdgeStyle;rounded=0;orthogonalLoop=1;jettySize=auto;html=1;entryX=0;entryY=0.5;entryDx=0;entryDy=0;" parent="1" source="r_CtDc-ecSbwkcaLi53V-6" target="r_CtDc-ecSbwkcaLi53V-4" edge="1">
          <mxGeometry relative="1" as="geometry" />
        </mxCell>
        <mxCell id="r_CtDc-ecSbwkcaLi53V-15" style="edgeStyle=orthogonalEdgeStyle;rounded=0;orthogonalLoop=1;jettySize=auto;html=1;entryX=0;entryY=0.5;entryDx=0;entryDy=0;endArrow=block;endFill=0;exitX=1;exitY=0.5;exitDx=0;exitDy=0;" parent="1" source="hzfJFQm4GblcsouTqsyo-5" target="r_CtDc-ecSbwkcaLi53V-14" edge="1">
          <mxGeometry relative="1" as="geometry" />
        </mxCell>
        <mxCell id="r_CtDc-ecSbwkcaLi53V-14" value="&lt;div&gt;«interface»&lt;/div&gt;&lt;div&gt;&lt;b&gt;FeedProvider&lt;/b&gt;&lt;br&gt;&lt;/div&gt;" style="html=1;whiteSpace=wrap;" parent="1" vertex="1">
          <mxGeometry x="960" y="780" width="140" height="70" as="geometry" />
        </mxCell>
        <mxCell id="r_CtDc-ecSbwkcaLi53V-1" value="&lt;div&gt;FeedUseCases&lt;/div&gt;Impl" style="rounded=0;whiteSpace=wrap;html=1;" parent="1" vertex="1">
          <mxGeometry x="295" y="510" width="120" height="60" as="geometry" />
        </mxCell>
        <mxCell id="r_CtDc-ecSbwkcaLi53V-6" value="&lt;div&gt;«interface»&lt;/div&gt;&lt;div&gt;&lt;b&gt;FeedUseCases&lt;/b&gt;&lt;br&gt;&lt;/div&gt;" style="html=1;whiteSpace=wrap;" parent="1" vertex="1">
          <mxGeometry x="285" y="390" width="140" height="70" as="geometry" />
        </mxCell>
        <mxCell id="r_CtDc-ecSbwkcaLi53V-21" value="UseCase layer" style="shape=umlFrame;whiteSpace=wrap;html=1;pointerEvents=0;" parent="1" vertex="1">
          <mxGeometry x="10" y="320" width="690" height="280" as="geometry" />
        </mxCell>
        <mxCell id="r_CtDc-ecSbwkcaLi53V-24" value="&lt;div&gt;Repository&lt;/div&gt;" style="shape=umlFrame;whiteSpace=wrap;html=1;pointerEvents=0;" parent="1" vertex="1">
          <mxGeometry x="-5" y="660" width="210" height="200" as="geometry" />
        </mxCell>
        <mxCell id="r_CtDc-ecSbwkcaLi53V-25" value="UI" style="shape=umlFrame;whiteSpace=wrap;html=1;pointerEvents=0;" parent="1" vertex="1">
          <mxGeometry x="470" y="620" width="720" height="380" as="geometry" />
        </mxCell>
        <mxCell id="r_CtDc-ecSbwkcaLi53V-29" style="edgeStyle=orthogonalEdgeStyle;rounded=0;orthogonalLoop=1;jettySize=auto;html=1;entryX=0.5;entryY=1;entryDx=0;entryDy=0;" parent="1" source="r_CtDc-ecSbwkcaLi53V-26" target="r_CtDc-ecSbwkcaLi53V-14" edge="1">
          <mxGeometry relative="1" as="geometry" />
        </mxCell>
        <mxCell id="r_CtDc-ecSbwkcaLi53V-30" style="edgeStyle=orthogonalEdgeStyle;rounded=0;orthogonalLoop=1;jettySize=auto;html=1;entryX=0.5;entryY=0;entryDx=0;entryDy=0;" parent="1" source="r_CtDc-ecSbwkcaLi53V-26" target="r_CtDc-ecSbwkcaLi53V-6" edge="1">
          <mxGeometry relative="1" as="geometry">
            <Array as="points">
              <mxPoint x="850" y="370" />
              <mxPoint x="355" y="370" />
            </Array>
          </mxGeometry>
        </mxCell>
        <mxCell id="r_CtDc-ecSbwkcaLi53V-26" value="&lt;b&gt;UI components&lt;br&gt;&lt;/b&gt;" style="html=1;dropTarget=0;whiteSpace=wrap;" parent="1" vertex="1">
          <mxGeometry x="940" y="890" width="180" height="90" as="geometry" />
        </mxCell>
        <mxCell id="r_CtDc-ecSbwkcaLi53V-27" value="" style="shape=module;jettyWidth=8;jettyHeight=4;" parent="r_CtDc-ecSbwkcaLi53V-26" vertex="1">
          <mxGeometry x="1" width="20" height="20" relative="1" as="geometry">
            <mxPoint x="-27" y="7" as="offset" />
          </mxGeometry>
        </mxCell>
        <mxCell id="hzfJFQm4GblcsouTqsyo-2" value="&lt;div&gt;«interface»&lt;/div&gt;&lt;div&gt;&lt;b&gt;FeedSink&lt;/b&gt;&lt;br&gt;&lt;/div&gt;" style="html=1;whiteSpace=wrap;" vertex="1" parent="1">
          <mxGeometry x="530" y="780" width="140" height="70" as="geometry" />
        </mxCell>
        <mxCell id="hzfJFQm4GblcsouTqsyo-6" style="edgeStyle=orthogonalEdgeStyle;rounded=0;orthogonalLoop=1;jettySize=auto;html=1;entryX=1;entryY=0.5;entryDx=0;entryDy=0;endArrow=block;endFill=0;" edge="1" parent="1" source="hzfJFQm4GblcsouTqsyo-5" target="hzfJFQm4GblcsouTqsyo-2">
          <mxGeometry relative="1" as="geometry" />
        </mxCell>
        <mxCell id="hzfJFQm4GblcsouTqsyo-5" value="FeedConnector" style="rounded=0;whiteSpace=wrap;html=1;" vertex="1" parent="1">
          <mxGeometry x="710" y="785" width="120" height="60" as="geometry" />
        </mxCell>
      </root>
    </mxGraphModel>
  </diagram>
</mxfile>
